<svg width="685" height="231" viewBox="0 0 685 231" fill="none" xmlns="http://www.w3.org/2000/svg">
<g clip-path="url(#clip0_24_74)">
<path d="M238.83 46.46V30.45L139.71 30.45V46.46L238.83 46.46Z" fill="#fff"/>
<path d="M238.81 127V86H172.93C164.332 85.888 155.791 87.3942 147.75 90.44C140.61 93.0673 134.367 97.6736 129.75 103.72C125.33 109.627 123.117 117.1 123.11 126.14C123.11 135 125.323 142.567 129.75 148.84C134.315 155.224 140.609 160.171 147.89 163.1C156.012 166.414 164.718 168.06 173.49 167.94C182.717 167.94 190.383 166.74 196.49 164.34C202.021 162.305 207.058 159.122 211.27 155C214.826 151.417 217.941 147.422 220.55 143.1H223.55V145C223.55 145.27 223.55 145.54 223.55 145.8V167.67H238.82V127H238.81ZM222.21 103.75C222.21 119.437 217.827 131.57 209.06 140.15C200.293 148.73 188.807 153.03 174.6 153.05C164.453 153.05 156.12 150.697 149.6 145.99C143.08 141.283 139.803 134.597 139.77 125.93C139.77 117.263 142.953 110.85 149.32 106.69C155.687 102.53 163.667 100.453 173.26 100.46H222.26L222.21 103.75Z" fill="#fff"/>
<path d="M522.79 46.46V30.45L423.67 30.45V46.46L522.79 46.46Z" fill="#fff"/>
<path d="M522.77 129.5V88.5H456.89C448.285 88.4071 439.74 89.9336 431.7 93C424.559 95.6248 418.315 100.232 413.7 106.28C409.267 112.193 407.053 119.667 407.06 128.7C407.06 137.56 409.273 145.127 413.7 151.4C418.261 157.784 424.551 162.731 431.83 165.66C439.953 168.973 448.659 170.619 457.43 170.5C466.663 170.5 474.33 169.3 480.43 166.9C485.976 164.845 491.024 161.638 495.24 157.49C498.793 153.906 501.905 149.911 504.51 145.59H507.51V147.52C507.51 147.79 507.51 148.06 507.51 148.32V167.72H522.67L522.77 166.44V129.5ZM506.16 106.25C506.16 121.937 501.777 134.07 493.01 142.65C484.243 151.23 472.757 155.52 458.55 155.52C448.397 155.52 440.047 153.167 433.5 148.46C426.953 143.753 423.677 137.067 423.67 128.4C423.67 119.733 426.853 113.32 433.22 109.16C439.587 105 447.57 102.923 457.17 102.93H506.17L506.16 106.25Z" fill="#fff"/>
<path d="M0.899994 167.69V0.370003H17.9V88.93H21.3L91.84 30H116.77L35.18 97.15L119 167.69H94.39L21.3 105.69H17.9V167.69H0.899994Z" fill="#fff"/>
<path d="M559.06 167.69V30H575.49V55.5H578.89C582.29 48.1267 587.86 41.5633 595.6 35.81C603.34 30.0567 614.577 27.1767 629.31 27.17C638.832 27.0602 648.246 29.1944 656.79 33.4C665.153 37.5927 672.106 44.142 676.79 52.24C681.79 60.64 684.293 71.1667 684.3 83.82V167.68H667.3V85C667.3 69.8933 663.523 59.0333 655.97 52.42C648.417 45.8067 638.313 42.5 625.66 42.5C611.493 42.5 599.69 47.1667 590.25 56.5C580.81 65.8333 576.087 79.95 576.08 98.85V167.69H559.06Z" fill="#fff"/>
<path d="M343.87 166.7C349.788 164.525 355.192 161.147 359.74 156.78C363.573 153.019 366.777 148.667 369.23 143.89H372.62V230.17H389.62V30H372.62V99.12C372.62 118.013 367.9 132.083 358.46 141.33C349.02 150.577 337.217 155.203 323.05 155.21C310.383 155.21 300.28 151.907 292.74 145.3C285.2 138.693 281.423 127.927 281.41 113V30H264.41V114.14C264.41 126.807 266.913 137.287 271.92 145.58C276.642 153.644 283.623 160.149 292 164.29C300.505 168.465 309.866 170.598 319.34 170.52C329.173 170.52 337.35 169.247 343.87 166.7Z" fill="#fff"/>
</g>
<defs>
<clipPath id="clip0_24_74">
<rect width="685" height="231" fill="#fff"/>
</clipPath>
</defs>
</svg>
